<?xml version="1.0" encoding="utf-8"?>
<!-- Generator: Adobe Illustrator 24.3.0, SVG Export Plug-In . SVG Version: 6.00 Build 0)  -->
<svg version="1.1" id="Layer_1" xmlns="http://www.w3.org/2000/svg" xmlns:xlink="http://www.w3.org/1999/xlink" x="0px" y="0px"
	 viewBox="0 0 700 700" style="enable-background:new 0 0 700 700;" xml:space="preserve">
<style type="text/css">
	.st0{clip-path:url(#SVGID_5_);}
	.st1{opacity:0.5;clip-path:url(#SVGID_6_);}
	.st2{fill:#0C0B0B;}
	.st3{opacity:0.6;}
	.st4{display:none;clip-path:url(#SVGID_5_);}
	.st5{display:inline;}
	.st6{opacity:0.5;clip-path:url(#SVGID_7_);}
	.st7{display:none;clip-path:url(#SVGID_5_);fill:#F1F2F2;}
	.st8{clip-path:url(#SVGID_5_);fill:#F7921E;}
	.st9{fill:#1E2B42;}
	.st10{display:inline;opacity:0.6;}
</style>
<g>
	<defs>
		<rect id="SVGID_4_" width="700" height="699.95"/>
	</defs>
	<clipPath id="SVGID_5_">
		<use xlink:href="#SVGID_4_"  style="overflow:visible;"/>
	</clipPath>
	<g class="st0">
		<g>
			<defs>
				<rect id="SVGID_3_" x="0.05" width="699.95" height="699.95"/>
			</defs>
			<use xlink:href="#SVGID_3_"  style="overflow:visible;fill:#FBAA19;"/>
			<clipPath id="SVGID_6_">
				<use xlink:href="#SVGID_3_"  style="overflow:visible;"/>
			</clipPath>
			<g class="st1">
				<g>
					<path class="st2" d="M-471.24,791.29l6.2-21.45c1.6-5.53,7.37-8.67,12.85-7.09l28.01,8.1c5.53,1.6,8.69,7.32,7.08,12.85
						l-2.19,7.59h18.74L-284,388.16c4.4-15.21,20.29-23.97,35.5-19.58l325.01,93.96c15.21,4.4,23.98,20.29,19.58,35.5L11.32,791.29
						h100.72L402.78-214.38h-24.84l-6.09,21.07c-1.6,5.53-7.37,8.67-12.85,7.09l-28.06-8.11c-5.48-1.59-8.69-7.32-7.08-12.85
						l2.08-7.2h-23.87l-18.21,62.98c-4.4,15.22-20.3,23.98-35.5,19.58l-285.58-82.56h-170.28L-498.25,791.29H-471.24z
						 M101.48,741.88L90.5,779.87c-1.6,5.53-7.37,8.67-12.85,7.09l-28.06-8.11c-5.48-1.59-8.69-7.32-7.09-12.85l10.98-37.98
						c1.6-5.53,7.37-8.67,12.85-7.09l28.06,8.11C99.88,730.62,103.08,736.35,101.48,741.88z M127.06,653.41l-10.98,37.98
						c-1.6,5.53-7.37,8.67-12.85,7.09l-28.06-8.11c-5.48-1.59-8.69-7.32-7.09-12.85l10.98-37.98c1.6-5.53,7.37-8.67,12.85-7.09
						l28.06,8.11C125.46,642.15,128.66,647.88,127.06,653.41z M152.63,564.94l-10.98,37.98c-1.6,5.53-7.37,8.67-12.85,7.09
						l-28.06-8.11c-5.48-1.58-8.69-7.32-7.09-12.85l10.98-37.98c1.6-5.53,7.37-8.67,12.85-7.09l28.06,8.11
						C151.03,553.68,154.23,559.41,152.63,564.94z M178.21,476.47l-10.98,37.98c-1.6,5.53-7.37,8.67-12.85,7.09l-28.06-8.11
						c-5.48-1.58-8.69-7.32-7.09-12.85l10.98-37.98c1.6-5.53,7.37-8.67,12.85-7.09l28.06,8.11
						C176.61,465.21,179.81,470.94,178.21,476.47z M203.79,388l-10.98,37.98c-1.6,5.53-7.37,8.67-12.85,7.09l-28.06-8.11
						c-5.48-1.59-8.68-7.32-7.09-12.85l10.98-37.98c1.6-5.53,7.37-8.67,12.85-7.09l28.06,8.11
						C202.18,376.74,205.39,382.47,203.79,388z M229.36,299.54l-10.98,37.98c-1.6,5.53-7.37,8.67-12.85,7.09l-28.06-8.11
						c-5.48-1.59-8.69-7.32-7.09-12.85l10.98-37.98c1.6-5.53,7.37-8.67,12.85-7.09l28.06,8.11
						C227.76,288.27,230.96,294,229.36,299.54z M254.94,211.06l-10.98,37.98c-1.6,5.53-7.37,8.67-12.85,7.09l-28.06-8.11
						c-5.48-1.58-8.68-7.32-7.09-12.85l10.98-37.98c1.6-5.53,7.37-8.67,12.85-7.09l28.06,8.11
						C253.34,199.8,256.54,205.53,254.94,211.06z M280.52,122.59l-10.98,37.98c-1.6,5.53-7.37,8.67-12.85,7.09l-28.06-8.11
						c-5.48-1.58-8.69-7.32-7.09-12.85l10.98-37.98c1.6-5.53,7.37-8.67,12.85-7.09l28.06,8.11
						C278.91,111.33,282.11,117.06,280.52,122.59z M298.27-118.71l10.98-37.98c1.6-5.53,7.37-8.67,12.85-7.09l28.06,8.11
						c5.48,1.59,8.69,7.32,7.09,12.85l-10.98,37.98c-1.6,5.53-7.37,8.67-12.85,7.09l-28.06-8.11
						C299.87-107.45,296.67-113.18,298.27-118.71z M272.69-30.24l10.98-37.98c1.6-5.53,7.37-8.67,12.85-7.09l28.06,8.11
						c5.48,1.59,8.69,7.32,7.09,12.85l-10.98,37.98c-1.6,5.53-7.37,8.67-12.85,7.09l-28.06-8.11
						C274.29-18.98,271.09-24.71,272.69-30.24z M270.94,13.16l28.06,8.11c5.48,1.59,8.69,7.32,7.09,12.85L295.11,72.1
						c-1.6,5.53-7.37,8.67-12.85,7.09l-28.06-8.11c-5.48-1.58-8.69-7.32-7.09-12.85l10.98-37.98
						C259.69,14.72,265.46,11.58,270.94,13.16z M-85.35-195.77l325.01,93.96c15.21,4.4,23.98,20.29,19.58,35.51L120.7,412.95
						c-4.4,15.22-20.29,23.98-35.5,19.58l-325.01-93.96c-15.21-4.4-23.98-20.29-19.58-35.51l138.55-479.25
						C-116.45-191.4-100.56-200.17-85.35-195.77z M-194.68-165.36l10.98-37.98c1.6-5.53,7.37-8.67,12.85-7.09l28.01,8.1
						c5.53,1.6,8.69,7.32,7.09,12.85l-10.98,37.98c-1.6,5.53-7.32,8.69-12.85,7.09l-28.01-8.1
						C-193.08-154.09-196.28-159.82-194.68-165.36z M-220.26-76.89l10.98-37.98c1.6-5.53,7.37-8.67,12.85-7.09l28.01,8.1
						c5.53,1.6,8.69,7.32,7.09,12.85l-10.98,37.98c-1.6,5.53-7.32,8.69-12.85,7.09l-28.01-8.1
						C-218.65-65.62-221.86-71.35-220.26-76.89z M-245.83,11.58l10.98-37.98c1.6-5.53,7.37-8.67,12.85-7.09l28.01,8.1
						c5.53,1.6,8.68,7.32,7.09,12.85l-10.98,37.98c-1.6,5.53-7.32,8.69-12.85,7.09l-28.01-8.1
						C-244.23,22.85-247.43,17.12-245.83,11.58z M-271.41,100.05l10.98-37.98c1.6-5.53,7.37-8.67,12.85-7.09l28.01,8.1
						c5.53,1.6,8.69,7.32,7.09,12.85l-10.98,37.98c-1.6,5.53-7.32,8.69-12.85,7.09l-28.01-8.1
						C-269.81,111.32-273.01,105.58-271.41,100.05z M-296.99,188.52l10.98-37.98c1.6-5.53,7.37-8.67,12.85-7.09l28.01,8.1
						c5.53,1.6,8.68,7.32,7.09,12.85l-10.98,37.98c-1.6,5.53-7.32,8.69-12.85,7.09l-28.01-8.1
						C-295.38,199.79-298.58,194.06-296.99,188.52z M-322.56,276.99l10.98-37.98c1.6-5.53,7.37-8.67,12.85-7.09l28.01,8.1
						c5.53,1.6,8.69,7.32,7.09,12.85l-10.98,37.98c-1.6,5.53-7.32,8.69-12.85,7.09l-28.01-8.1
						C-320.96,288.26-324.16,282.53-322.56,276.99z M-348.14,365.46l10.98-37.98c1.6-5.53,7.37-8.67,12.85-7.09l28.01,8.1
						c5.53,1.6,8.69,7.32,7.09,12.85l-10.98,37.98c-1.6,5.53-7.32,8.69-12.85,7.09l-28.01-8.1
						C-346.53,376.73-349.74,371-348.14,365.46z M-373.71,453.93l10.98-37.98c1.6-5.53,7.37-8.67,12.85-7.09l28.01,8.1
						c5.53,1.6,8.69,7.32,7.09,12.85l-10.98,37.98c-1.6,5.53-7.32,8.69-12.85,7.09l-28.01-8.1
						C-372.11,465.2-375.31,459.47-373.71,453.93z M-399.29,542.4l10.98-37.98c1.6-5.53,7.37-8.67,12.85-7.09l28.01,8.1
						c5.53,1.6,8.69,7.32,7.09,12.85l-10.98,37.98c-1.6,5.53-7.32,8.69-12.85,7.09l-28.01-8.1
						C-397.69,553.67-400.89,547.94-399.29,542.4z M-424.87,630.88l10.98-37.98c1.6-5.53,7.37-8.67,12.85-7.09l28.01,8.1
						c5.53,1.6,8.68,7.32,7.09,12.85l-10.98,37.98c-1.6,5.53-7.32,8.69-12.85,7.09l-28.01-8.1
						C-423.26,642.14-426.47,636.41-424.87,630.88z M-450.44,719.34l10.98-37.98c1.6-5.53,7.37-8.67,12.85-7.09l28.01,8.1
						c5.53,1.6,8.69,7.32,7.09,12.85l-10.98,37.98c-1.6,5.53-7.32,8.69-12.85,7.09l-28.01-8.1
						C-448.84,730.61-452.04,724.88-450.44,719.34z"/>
				</g>
				<g class="st3">
					<path class="st2" d="M11.32,791.29l84.77-293.24c4.4-15.21-4.37-31.1-19.58-35.5l-325.01-93.96
						c-15.21-4.4-31.11,4.37-35.5,19.58l-116.54,403.12H11.32z"/>
					<path class="st2" d="M-85.35-195.77c-15.21-4.4-31.11,4.37-35.51,19.58L-259.4,303.07c-4.4,15.22,4.37,31.11,19.58,35.51
						l325.01,93.96c15.21,4.4,31.11-4.37,35.51-19.58L259.24-66.3c4.4-15.21-4.37-31.11-19.58-35.51L-85.35-195.77z"/>
					<path class="st2" d="M-37.23-214.38l285.58,82.56c15.21,4.4,31.11-4.37,35.51-19.58l18.21-62.98H-37.23z"/>
				</g>
			</g>
		</g>
	</g>
	<g class="st4">
		<g class="st5">
			<defs>
				<rect id="SVGID_2_" x="1059.48" y="-457.71" width="699.95" height="699.95"/>
			</defs>
			<use xlink:href="#SVGID_2_"  style="overflow:visible;fill:#FBAA19;"/>
			<clipPath id="SVGID_7_">
				<use xlink:href="#SVGID_2_"  style="overflow:visible;"/>
			</clipPath>
			<g class="st6">
				<g>
					<path class="st2" d="M588.19,333.57l6.2-21.45c1.6-5.53,7.37-8.67,12.85-7.09l28.01,8.1c5.53,1.6,8.69,7.32,7.08,12.85
						l-2.19,7.59h18.74L775.43-69.55c4.4-15.21,20.29-23.97,35.5-19.58l325.01,93.96c15.21,4.4,23.98,20.29,19.58,35.5
						l-84.77,293.24h100.72l290.73-1005.67h-24.84l-6.09,21.07c-1.6,5.53-7.37,8.67-12.85,7.09l-28.06-8.11
						c-5.48-1.59-8.69-7.32-7.08-12.85l2.08-7.2h-23.87l-18.21,62.98c-4.4,15.22-20.3,23.98-35.51,19.58l-285.58-82.56H851.92
						L561.18,333.57H588.19z M1160.91,284.17l-10.98,37.98c-1.6,5.53-7.37,8.67-12.85,7.09l-28.06-8.11
						c-5.48-1.59-8.69-7.32-7.09-12.85l10.98-37.98c1.6-5.53,7.37-8.67,12.85-7.09l28.06,8.11
						C1159.31,272.91,1162.51,278.64,1160.91,284.17z M1186.49,195.7l-10.98,37.98c-1.6,5.53-7.37,8.67-12.85,7.09l-28.06-8.11
						c-5.48-1.59-8.69-7.32-7.09-12.85l10.98-37.98c1.6-5.53,7.37-8.67,12.85-7.09l28.06,8.11
						C1184.88,184.44,1188.09,190.17,1186.49,195.7z M1212.06,107.23l-10.98,37.98c-1.6,5.53-7.37,8.67-12.85,7.09l-28.06-8.11
						c-5.48-1.58-8.69-7.32-7.09-12.85l10.98-37.98c1.6-5.53,7.37-8.67,12.85-7.09l28.06,8.11
						C1210.46,95.97,1213.66,101.7,1212.06,107.23z M1237.64,18.76l-10.98,37.98c-1.6,5.53-7.37,8.67-12.85,7.09l-28.06-8.11
						c-5.48-1.58-8.69-7.32-7.09-12.85l10.98-37.98c1.6-5.53,7.37-8.67,12.85-7.09l28.06,8.11
						C1236.04,7.5,1239.24,13.23,1237.64,18.76z M1263.22-69.71l-10.98,37.98c-1.6,5.53-7.37,8.67-12.85,7.09l-28.06-8.11
						c-5.48-1.59-8.68-7.32-7.09-12.85l10.98-37.98c1.6-5.53,7.37-8.67,12.85-7.09l28.06,8.11
						C1261.61-80.97,1264.81-75.24,1263.22-69.71z M1288.79-158.18l-10.98,37.98c-1.6,5.53-7.37,8.67-12.85,7.09l-28.06-8.11
						c-5.48-1.59-8.69-7.32-7.09-12.85l10.98-37.98c1.6-5.53,7.37-8.67,12.85-7.09l28.06,8.11
						C1287.19-169.44,1290.39-163.71,1288.79-158.18z M1314.37-246.65l-10.98,37.98c-1.6,5.53-7.37,8.67-12.85,7.09l-28.06-8.11
						c-5.48-1.58-8.68-7.32-7.09-12.85l10.98-37.98c1.6-5.53,7.37-8.67,12.85-7.09l28.06,8.11
						C1312.76-257.92,1315.97-252.18,1314.37-246.65z M1339.94-335.12l-10.98,37.98c-1.6,5.53-7.37,8.67-12.85,7.09l-28.06-8.11
						c-5.48-1.58-8.69-7.32-7.09-12.85l10.98-37.98c1.6-5.53,7.37-8.67,12.85-7.09l28.06,8.11
						C1338.34-346.39,1341.54-340.65,1339.94-335.12z M1357.7-576.43l10.98-37.98c1.6-5.53,7.37-8.67,12.85-7.09l28.06,8.11
						c5.48,1.59,8.69,7.32,7.09,12.85l-10.98,37.98c-1.6,5.53-7.37,8.67-12.85,7.09l-28.06-8.11
						C1359.3-565.16,1356.1-570.89,1357.7-576.43z M1332.12-487.96l10.98-37.98c1.6-5.53,7.37-8.67,12.85-7.09l28.06,8.11
						c5.48,1.59,8.69,7.32,7.09,12.85l-10.98,37.98c-1.6,5.53-7.37,8.67-12.85,7.09l-28.06-8.11
						C1333.72-476.69,1330.52-482.42,1332.12-487.96z M1330.37-444.55l28.06,8.11c5.48,1.58,8.69,7.32,7.09,12.85l-10.98,37.98
						c-1.6,5.53-7.37,8.67-12.85,7.09l-28.06-8.11c-5.48-1.58-8.69-7.32-7.09-12.85l10.98-37.98
						C1319.12-443,1324.89-446.14,1330.37-444.55z M974.08-653.48l325.01,93.96c15.21,4.4,23.98,20.29,19.58,35.51L1180.12-44.77
						c-4.4,15.22-20.29,23.98-35.5,19.58l-325.01-93.96c-15.21-4.4-23.98-20.29-19.58-35.51L938.58-633.9
						C942.98-649.11,958.87-657.88,974.08-653.48z M864.75-623.07l10.98-37.98c1.6-5.53,7.37-8.67,12.85-7.09l28.01,8.1
						c5.53,1.6,8.69,7.32,7.09,12.85l-10.98,37.98c-1.6,5.53-7.32,8.69-12.85,7.09l-28.01-8.1
						C866.35-611.8,863.15-617.54,864.75-623.07z M839.17-534.6l10.98-37.98c1.6-5.53,7.37-8.67,12.85-7.09l28.01,8.1
						c5.53,1.6,8.69,7.32,7.09,12.85l-10.98,37.98c-1.6,5.53-7.32,8.69-12.85,7.09l-28.01-8.1
						C840.78-523.34,837.57-529.07,839.17-534.6z M813.6-446.13l10.98-37.98c1.6-5.53,7.37-8.67,12.85-7.09l28.01,8.1
						c5.53,1.6,8.68,7.32,7.09,12.85l-10.98,37.98c-1.6,5.53-7.32,8.69-12.85,7.09l-28.01-8.1C815.2-434.87,812-440.6,813.6-446.13z
						 M788.02-357.66L799-395.64c1.6-5.53,7.37-8.67,12.85-7.09l28.01,8.1c5.53,1.6,8.69,7.32,7.09,12.85l-10.98,37.98
						c-1.6,5.53-7.32,8.69-12.85,7.09l-28.01-8.1C789.62-346.39,786.42-352.13,788.02-357.66z M762.44-269.19l10.98-37.98
						c1.6-5.53,7.37-8.67,12.85-7.09l28.01,8.1c5.53,1.6,8.68,7.32,7.09,12.85l-10.98,37.98c-1.6,5.53-7.32,8.69-12.85,7.09
						l-28.01-8.1C764.05-257.92,760.84-263.66,762.44-269.19z M736.87-180.72l10.98-37.98c1.6-5.53,7.37-8.67,12.85-7.09l28.01,8.1
						c5.53,1.6,8.69,7.32,7.09,12.85l-10.98,37.98c-1.6,5.53-7.32,8.69-12.85,7.09l-28.01-8.1
						C738.47-169.45,735.27-175.19,736.87-180.72z M711.29-92.25l10.98-37.98c1.6-5.53,7.37-8.67,12.85-7.09l28.01,8.1
						c5.53,1.6,8.69,7.32,7.09,12.85l-10.98,37.98c-1.6,5.53-7.32,8.69-12.85,7.09l-28.01-8.1
						C712.89-80.99,709.69-86.72,711.29-92.25z M685.71-3.78l10.98-37.98c1.6-5.53,7.37-8.67,12.85-7.09l28.01,8.1
						c5.53,1.6,8.69,7.32,7.09,12.85l-10.98,37.98c-1.6,5.53-7.32,8.69-12.85,7.09l-28.01-8.1C687.32,7.49,684.11,1.75,685.71-3.78z
						 M660.14,84.69l10.98-37.98c1.6-5.53,7.37-8.67,12.85-7.09l28.01,8.1c5.53,1.6,8.69,7.32,7.09,12.85l-10.98,37.98
						c-1.6,5.53-7.32,8.69-12.85,7.09l-28.01-8.1C661.74,95.96,658.54,90.22,660.14,84.69z M634.56,173.16l10.98-37.98
						c1.6-5.53,7.37-8.67,12.85-7.09l28.01,8.1c5.53,1.6,8.68,7.32,7.09,12.85l-10.98,37.98c-1.6,5.53-7.32,8.69-12.85,7.09
						l-28.01-8.1C636.17,184.43,632.96,178.69,634.56,173.16z M608.99,261.63l10.98-37.98c1.6-5.53,7.37-8.67,12.85-7.09l28.01,8.1
						c5.53,1.6,8.69,7.32,7.09,12.85l-10.98,37.98c-1.6,5.53-7.32,8.69-12.85,7.09l-28.01-8.1
						C610.59,272.9,607.39,267.16,608.99,261.63z"/>
				</g>
				<g class="st3">
					<path class="st2" d="M1070.75,333.57l84.77-293.24c4.4-15.21-4.37-31.1-19.58-35.5L810.93-89.13
						c-15.21-4.4-31.11,4.37-35.5,19.58L658.89,333.57H1070.75z"/>
					<path class="st2" d="M974.08-653.48c-15.21-4.4-31.11,4.37-35.51,19.58L800.03-154.65c-4.4,15.22,4.37,31.11,19.58,35.51
						l325.01,93.96c15.21,4.4,31.11-4.37,35.51-19.58l138.55-479.25c4.4-15.21-4.37-31.11-19.58-35.51L974.08-653.48z"/>
					<path class="st2" d="M1022.19-672.09l285.58,82.56c15.21,4.4,31.11-4.37,35.51-19.58l18.21-62.98H1022.19z"/>
				</g>
			</g>
		</g>
	</g>
	<polygon class="st7" points="1234.98,-291.84 1759.43,-271.3 1759.43,242.23 1059.43,242.23 1193.58,-248.43 	"/>
	<polygon class="st8" points="134.15,209.28 0,699.95 37.73,699.95 	"/>
	<polygon class="st8" points="175.55,165.88 700.57,143.31 700,186.41 	"/>
	<g class="st4">
		<g class="st5">
			<path class="st9" d="M643.51,839.89L871.62,50.85h-42.69l6.67,1.93c4.13,1.19,6.51,5.51,5.32,9.64L803.28,192.6
				c-1.19,4.13-5.51,6.51-9.64,5.32l-88.28-25.52c-4.13-1.19-6.51-5.51-5.32-9.64l32.35-111.9h-5.09l-1.92,6.65
				c-0.43,1.5-1.99,2.36-3.49,1.93l-7.61-2.2c-1.49-0.43-2.36-1.99-1.92-3.49l0.83-2.88h-7.33L477.74,839.89h7.33l1-3.45
				c0.43-1.5,2-2.36,3.49-1.92l7.61,2.2c1.4,0.4,2.22,1.78,1.98,3.18h5.12l11.81-40.85c1.19-4.13,5.51-6.51,9.64-5.32l88.28,25.52
				c4.13,1.19,6.51,5.51,5.32,9.64l-3.18,11h13.19l-3.48-1.01c-1.49-0.43-2.36-1.99-1.92-3.49l2.98-10.32c0.43-1.5,2-2.36,3.49-1.92
				l7.62,2.2c1.49,0.43,2.36,1.99,1.93,3.49l-2.98,10.32c-0.08,0.27-0.2,0.51-0.34,0.73H643.51z M522.77,775.93l37.63-130.18
				c1.19-4.13,5.51-6.51,9.64-5.32l88.28,25.52c4.13,1.19,6.51,5.51,5.32,9.64l-37.63,130.18c-1.19,4.13-5.51,6.51-9.64,5.32
				l-88.28-25.52C523.96,784.38,521.57,780.06,522.77,775.93z M707.96,522.3l-37.63,130.18c-1.19,4.13-5.51,6.51-9.64,5.32
				l-88.28-25.52c-4.13-1.19-6.51-5.51-5.32-9.64l37.63-130.18c1.19-4.13,5.51-6.51,9.64-5.32l88.28,25.52
				C706.78,513.85,709.16,518.17,707.96,522.3z M705,504.51l-88.28-25.52c-4.13-1.19-6.51-5.51-5.32-9.64l37.63-130.18
				c1.2-4.13,5.51-6.51,9.64-5.32l88.28,25.52c4.13,1.19,6.51,5.51,5.32,9.64l-37.63,130.18C713.45,503.32,709.13,505.7,705,504.51z
				 M496.51,810.48l7.61,2.2c1.5,0.43,2.36,1.99,1.92,3.49l-2.98,10.32c-0.43,1.5-1.99,2.36-3.49,1.93l-7.61-2.2
				c-1.49-0.43-2.36-1.99-1.92-3.49l2.98-10.32C493.45,810.91,495.02,810.05,496.51,810.48z M503.46,786.45l7.61,2.2
				c1.5,0.43,2.36,1.99,1.92,3.49l-2.98,10.32c-0.43,1.5-1.99,2.36-3.49,1.93l-7.61-2.2c-1.49-0.43-2.36-1.99-1.92-3.49l2.98-10.32
				C500.4,786.88,501.97,786.02,503.46,786.45z M510.4,762.42l7.61,2.2c1.5,0.43,2.36,1.99,1.93,3.49l-2.98,10.32
				c-0.43,1.5-1.99,2.36-3.49,1.92l-7.61-2.2c-1.49-0.43-2.36-1.99-1.92-3.49l2.98-10.32C507.35,762.84,508.91,761.99,510.4,762.42z
				 M517.35,738.39l7.61,2.2c1.5,0.43,2.36,1.99,1.92,3.49l-2.98,10.32c-0.43,1.5-1.99,2.36-3.49,1.92l-7.61-2.2
				c-1.49-0.43-2.36-1.99-1.93-3.49l2.98-10.32C514.3,738.81,515.86,737.96,517.35,738.39z M524.3,714.36l7.61,2.2
				c1.5,0.43,2.36,1.99,1.93,3.49l-2.98,10.32c-0.43,1.5-1.99,2.36-3.49,1.93l-7.61-2.2c-1.49-0.43-2.36-1.99-1.92-3.49l2.98-10.32
				C521.24,714.78,522.81,713.93,524.3,714.36z M531.25,690.33l7.61,2.2c1.5,0.43,2.36,1.99,1.92,3.49l-2.98,10.32
				c-0.43,1.5-1.99,2.36-3.49,1.93l-7.61-2.2c-1.49-0.43-2.36-1.99-1.93-3.49l2.98-10.32C528.19,690.75,529.76,689.9,531.25,690.33z
				 M538.19,666.3l7.61,2.2c1.5,0.43,2.36,1.99,1.93,3.49l-2.98,10.32c-0.43,1.5-1.99,2.36-3.49,1.92l-7.61-2.2
				c-1.49-0.43-2.36-1.99-1.92-3.49l2.98-10.32C535.14,666.72,536.7,665.87,538.19,666.3z M545.14,642.27l7.61,2.2
				c1.5,0.43,2.36,1.99,1.92,3.49l-2.98,10.32c-0.43,1.5-1.99,2.36-3.49,1.92l-7.61-2.2c-1.49-0.43-2.36-1.99-1.93-3.49l2.98-10.32
				C542.08,642.69,543.65,641.84,545.14,642.27z M552.09,618.24l7.61,2.2c1.5,0.43,2.36,1.99,1.92,3.49l-2.98,10.32
				c-0.43,1.5-1.99,2.36-3.49,1.92l-7.61-2.2c-1.49-0.43-2.36-1.99-1.92-3.49l2.98-10.32C549.03,618.66,550.6,617.8,552.09,618.24z
				 M559.03,594.2l7.61,2.2c1.5,0.43,2.36,1.99,1.92,3.49l-2.98,10.32c-0.43,1.5-1.99,2.36-3.49,1.93l-7.61-2.2
				c-1.49-0.43-2.36-1.99-1.92-3.49l2.98-10.32C555.98,594.63,557.55,593.77,559.03,594.2z M565.98,570.17l7.61,2.2
				c1.5,0.43,2.36,1.99,1.92,3.49l-2.98,10.32c-0.43,1.5-1.99,2.36-3.49,1.92l-7.61-2.2c-1.49-0.43-2.36-1.99-1.92-3.49l2.98-10.32
				C562.93,570.6,564.49,569.74,565.98,570.17z M572.93,546.14l7.61,2.2c1.5,0.43,2.36,1.99,1.92,3.49l-2.98,10.32
				c-0.43,1.5-1.99,2.36-3.49,1.92l-7.61-2.2c-1.49-0.43-2.36-1.99-1.92-3.49l2.98-10.32C569.87,546.56,571.44,545.71,572.93,546.14
				z M579.88,522.11l7.61,2.2c1.5,0.43,2.36,1.99,1.92,3.49l-2.98,10.32c-0.43,1.5-1.99,2.36-3.49,1.93l-7.61-2.2
				c-1.49-0.43-2.36-1.99-1.92-3.49l2.98-10.32C576.82,522.53,578.39,521.68,579.88,522.11z M586.82,498.08l7.61,2.2
				c1.5,0.43,2.36,1.99,1.92,3.49l-2.98,10.32c-0.43,1.5-1.99,2.36-3.49,1.92l-7.61-2.2c-1.49-0.43-2.36-1.99-1.92-3.49l2.98-10.32
				C583.77,498.5,585.33,497.65,586.82,498.08z M593.77,474.05l7.61,2.2c1.5,0.43,2.36,1.99,1.92,3.49l-2.98,10.32
				c-0.43,1.5-1.99,2.36-3.49,1.92l-7.61-2.2c-1.49-0.43-2.36-1.99-1.92-3.49l2.98-10.32C590.72,474.47,592.28,473.62,593.77,474.05
				z M600.72,450.02l7.61,2.2c1.5,0.43,2.36,1.99,1.92,3.49l-2.98,10.32c-0.43,1.5-1.99,2.36-3.49,1.92l-7.61-2.2
				c-1.49-0.43-2.36-1.99-1.92-3.49l2.98-10.32C597.66,450.44,599.23,449.59,600.72,450.02z M607.67,425.99l7.61,2.2
				c1.5,0.43,2.36,1.99,1.92,3.49l-2.98,10.32c-0.43,1.5-1.99,2.36-3.49,1.93l-7.61-2.2c-1.49-0.43-2.36-1.99-1.92-3.49l2.98-10.32
				C604.61,426.41,606.18,425.56,607.67,425.99z M614.61,401.96l7.61,2.2c1.5,0.43,2.36,1.99,1.92,3.49l-2.98,10.32
				c-0.43,1.5-1.99,2.36-3.49,1.93l-7.61-2.2c-1.49-0.43-2.36-1.99-1.92-3.49l2.98-10.32C611.56,402.38,613.12,401.53,614.61,401.96
				z M621.56,377.92l7.61,2.2c1.5,0.43,2.36,1.99,1.92,3.49l-2.98,10.32c-0.43,1.5-1.99,2.36-3.49,1.92l-7.61-2.2
				c-1.49-0.43-2.36-1.99-1.92-3.49l2.98-10.32C618.5,378.35,620.07,377.49,621.56,377.92z M628.51,353.89l7.61,2.2
				c1.5,0.43,2.36,1.99,1.92,3.49l-2.98,10.32c-0.43,1.5-1.99,2.36-3.49,1.93l-7.61-2.2c-1.49-0.43-2.36-1.99-1.92-3.49l2.98-10.32
				C625.45,354.32,627.02,353.46,628.51,353.89z M635.45,329.86l7.61,2.2c1.5,0.43,2.36,1.99,1.92,3.49l-2.98,10.32
				c-0.43,1.5-1.99,2.36-3.49,1.92l-7.61-2.2c-1.49-0.43-2.36-1.99-1.92-3.49l2.98-10.32C632.4,330.29,633.97,329.43,635.45,329.86z
				 M642.4,305.83l7.61,2.2c1.5,0.43,2.36,1.99,1.93,3.49l-2.98,10.32c-0.43,1.5-1.99,2.36-3.49,1.93l-7.61-2.2
				c-1.49-0.43-2.36-1.99-1.92-3.49l2.98-10.32C639.35,306.25,640.91,305.4,642.4,305.83z M649.35,281.8l7.61,2.2
				c1.5,0.43,2.36,1.99,1.92,3.49l-2.98,10.32c-0.43,1.5-1.99,2.36-3.49,1.93l-7.61-2.2c-1.49-0.43-2.36-1.99-1.93-3.49l2.98-10.32
				C646.29,282.22,647.86,281.37,649.35,281.8z M656.3,257.77l7.61,2.2c1.5,0.43,2.36,1.99,1.93,3.49l-2.98,10.32
				c-0.43,1.5-1.99,2.36-3.49,1.93l-7.61-2.2c-1.49-0.43-2.36-1.99-1.92-3.49l2.98-10.32C653.24,258.19,654.81,257.34,656.3,257.77z
				 M663.24,233.74l7.61,2.2c1.5,0.43,2.36,1.99,1.92,3.49l-2.98,10.32c-0.43,1.5-1.99,2.36-3.49,1.93l-7.61-2.2
				c-1.49-0.43-2.36-1.99-1.93-3.49l2.98-10.32C660.19,234.16,661.75,233.31,663.24,233.74z M670.19,209.71l7.61,2.2
				c1.5,0.43,2.36,1.99,1.92,3.49l-2.98,10.32c-0.43,1.5-1.99,2.36-3.49,1.93l-7.61-2.2c-1.49-0.43-2.36-1.99-1.92-3.49l2.98-10.32
				C667.14,210.13,668.7,209.28,670.19,209.71z M677.14,185.68l7.61,2.2c1.5,0.43,2.36,1.99,1.93,3.49l-2.98,10.32
				c-0.43,1.5-1.99,2.36-3.49,1.93l-7.61-2.2c-1.49-0.43-2.36-1.99-1.92-3.49l2.98-10.32C674.08,186.1,675.65,185.25,677.14,185.68z
				 M684.09,161.65l7.61,2.2c1.5,0.43,2.36,1.99,1.92,3.49l-2.98,10.32c-0.43,1.5-1.99,2.36-3.49,1.92l-7.61-2.2
				c-1.49-0.43-2.36-1.99-1.92-3.49l2.98-10.32C681.03,162.07,682.6,161.22,684.09,161.65z M714.94,83.45l-7.61-2.2
				c-1.49-0.43-2.36-1.99-1.92-3.49l2.98-10.32c0.43-1.5,2-2.36,3.49-1.93l7.61,2.2c1.5,0.43,2.36,1.99,1.92,3.49l-2.98,10.32
				C717.99,83.03,716.44,83.89,714.94,83.45z M707.99,107.48l-7.61-2.2c-1.49-0.43-2.36-1.99-1.92-3.49l2.98-10.32
				c0.43-1.5,2-2.36,3.49-1.92l7.61,2.2c1.5,0.43,2.36,1.99,1.92,3.49l-2.98,10.32C711.04,107.06,709.49,107.92,707.99,107.48z
				 M701.04,131.52l-7.61-2.2c-1.49-0.43-2.36-1.99-1.92-3.49l2.98-10.32c0.43-1.5,2-2.36,3.49-1.93l7.61,2.2
				c1.5,0.43,2.36,1.99,1.92,3.49l-2.98,10.32C704.1,131.09,702.54,131.95,701.04,131.52z M697.58,153.62
				c-0.43,1.5-1.99,2.36-3.49,1.92l-7.61-2.2c-1.49-0.43-2.36-1.99-1.92-3.49l2.98-10.32c0.43-1.5,2-2.36,3.49-1.93l7.61,2.2
				c1.5,0.43,2.36,1.99,1.92,3.49L697.58,153.62z M796.6,215.72l-37.63,130.18c-1.2,4.13-5.51,6.51-9.64,5.32l-88.28-25.52
				c-4.13-1.19-6.51-5.51-5.32-9.64l37.63-130.18c1.19-4.13,5.51-6.51,9.64-5.32l88.28,25.52
				C795.41,207.27,797.79,211.58,796.6,215.72z M855.79,72.1l-7.62-2.2c-1.49-0.43-2.36-1.99-1.92-3.49l2.98-10.32
				c0.43-1.5,2-2.36,3.49-1.93l7.62,2.2c1.49,0.43,2.36,1.99,1.93,3.49l-2.98,10.32C858.85,71.67,857.28,72.53,855.79,72.1z
				 M848.85,96.13l-7.62-2.2c-1.49-0.43-2.36-1.99-1.92-3.49l2.98-10.32c0.43-1.5,2-2.36,3.49-1.93l7.62,2.2
				c1.49,0.43,2.36,1.99,1.92,3.49l-2.98,10.32C851.9,95.7,850.34,96.56,848.85,96.13z M841.9,120.16l-7.62-2.2
				c-1.49-0.43-2.36-1.99-1.93-3.49l2.98-10.32c0.43-1.5,2-2.36,3.49-1.93l7.62,2.2c1.49,0.43,2.36,1.99,1.93,3.49l-2.98,10.32
				C844.96,119.74,843.39,120.59,841.9,120.16z M834.95,144.19l-7.62-2.2c-1.49-0.43-2.36-1.99-1.92-3.49l2.98-10.32
				c0.43-1.5,2-2.36,3.49-1.92l7.62,2.2c1.49,0.43,2.36,1.99,1.92,3.49l-2.98,10.32C838.01,143.77,836.44,144.62,834.95,144.19z
				 M828.01,168.22l-7.62-2.2c-1.49-0.43-2.36-1.99-1.93-3.49l2.98-10.32c0.43-1.5,2-2.36,3.49-1.92l7.62,2.2
				c1.49,0.43,2.36,1.99,1.92,3.49l-2.98,10.32C831.06,167.8,829.5,168.65,828.01,168.22z M821.06,192.25l-7.62-2.2
				c-1.49-0.43-2.36-1.99-1.92-3.49l2.98-10.32c0.43-1.5,2-2.36,3.49-1.93l7.62,2.2c1.49,0.43,2.36,1.99,1.92,3.49l-2.98,10.32
				C824.11,191.83,822.55,192.68,821.06,192.25z M814.11,216.28l-7.62-2.2c-1.49-0.43-2.36-1.99-1.93-3.49l2.98-10.32
				c0.43-1.5,2-2.36,3.49-1.92l7.62,2.2c1.49,0.43,2.36,1.99,1.92,3.49l-2.98,10.32C817.17,215.86,815.6,216.71,814.11,216.28z
				 M807.16,240.31l-7.62-2.2c-1.49-0.43-2.36-1.99-1.92-3.49l2.98-10.32c0.43-1.5,2-2.36,3.49-1.92l7.62,2.2
				c1.49,0.43,2.36,1.99,1.92,3.49l-2.98,10.32C810.22,239.89,808.65,240.74,807.16,240.31z M800.22,264.34l-7.62-2.2
				c-1.49-0.43-2.36-1.99-1.93-3.49l2.98-10.32c0.43-1.5,2-2.36,3.49-1.93l7.62,2.2c1.49,0.43,2.36,1.99,1.92,3.49l-2.98,10.32
				C803.27,263.92,801.71,264.77,800.22,264.34z M793.27,288.38l-7.62-2.2c-1.49-0.43-2.36-1.99-1.92-3.49l2.98-10.32
				c0.43-1.5,2-2.36,3.49-1.93l7.62,2.2c1.49,0.43,2.36,1.99,1.92,3.49l-2.98,10.32C796.33,287.95,794.76,288.81,793.27,288.38z
				 M786.32,312.41l-7.62-2.2c-1.49-0.43-2.36-1.99-1.92-3.49l2.98-10.32c0.43-1.5,2-2.36,3.49-1.92l7.62,2.2
				c1.49,0.43,2.36,1.99,1.92,3.49l-2.98,10.32C789.38,311.98,787.81,312.84,786.32,312.41z M779.38,336.44l-7.62-2.2
				c-1.49-0.43-2.36-1.99-1.92-3.49l2.98-10.32c0.43-1.5,2-2.36,3.49-1.92l7.62,2.2c1.49,0.43,2.36,1.99,1.92,3.49l-2.98,10.32
				C782.43,336.02,780.86,336.87,779.38,336.44z M772.43,360.47l-7.62-2.2c-1.49-0.43-2.36-1.99-1.92-3.49l2.98-10.32
				c0.43-1.5,2-2.36,3.49-1.93l7.62,2.2c1.49,0.43,2.36,1.99,1.93,3.49l-2.98,10.32C775.48,360.05,773.92,360.9,772.43,360.47z
				 M765.48,384.5l-7.62-2.2c-1.49-0.43-2.36-1.99-1.92-3.49l2.98-10.32c0.43-1.5,2-2.36,3.49-1.92l7.62,2.2
				c1.49,0.43,2.36,1.99,1.92,3.49l-2.98,10.32C768.54,384.08,766.97,384.93,765.48,384.5z M758.53,408.53l-7.62-2.2
				c-1.49-0.43-2.36-1.99-1.92-3.49l2.98-10.32c0.43-1.5,2-2.36,3.49-1.93l7.62,2.2c1.49,0.43,2.36,1.99,1.92,3.49l-2.98,10.32
				C761.59,408.11,760.02,408.96,758.53,408.53z M751.59,432.56l-7.62-2.2c-1.49-0.43-2.36-1.99-1.92-3.49l2.98-10.32
				c0.43-1.5,2-2.36,3.49-1.93l7.62,2.2c1.49,0.43,2.36,1.99,1.92,3.49l-2.98,10.32C754.64,432.14,753.08,432.99,751.59,432.56z
				 M744.64,456.59l-7.62-2.2c-1.49-0.43-2.36-1.99-1.92-3.49l2.98-10.32c0.43-1.5,2-2.36,3.49-1.93l7.62,2.2
				c1.49,0.43,2.36,1.99,1.92,3.49l-2.98,10.32C747.69,456.17,746.13,457.02,744.64,456.59z M737.69,480.62l-7.62-2.2
				c-1.49-0.43-2.36-1.99-1.92-3.49l2.98-10.32c0.43-1.5,2-2.36,3.49-1.92l7.62,2.2c1.49,0.43,2.36,1.99,1.93,3.49l-2.98,10.32
				C740.75,480.2,739.18,481.05,737.69,480.62z M730.74,504.65l-7.62-2.2c-1.49-0.43-2.36-1.99-1.92-3.49l2.98-10.32
				c0.43-1.5,2-2.36,3.49-1.92l7.62,2.2c1.49,0.43,2.36,1.99,1.92,3.49l-2.98,10.32C733.8,504.23,732.23,505.09,730.74,504.65z
				 M723.8,528.69l-7.62-2.2c-1.49-0.43-2.36-1.99-1.93-3.49l2.98-10.32c0.43-1.5,2-2.36,3.49-1.92l7.62,2.2
				c1.49,0.43,2.36,1.99,1.93,3.49l-2.98,10.32C726.85,528.26,725.29,529.12,723.8,528.69z M716.85,552.72l-7.62-2.2
				c-1.49-0.43-2.36-1.99-1.92-3.49l2.98-10.32c0.43-1.5,2-2.36,3.49-1.93l7.62,2.2c1.49,0.43,2.36,1.99,1.92,3.49l-2.98,10.32
				C719.91,552.29,718.34,553.15,716.85,552.72z M709.9,576.75l-7.62-2.2c-1.49-0.43-2.36-1.99-1.93-3.49l2.98-10.32
				c0.43-1.5,2-2.36,3.49-1.93l7.62,2.2c1.49,0.43,2.36,1.99,1.92,3.49l-2.98,10.32C712.96,576.33,711.39,577.18,709.9,576.75z
				 M702.95,600.78l-7.62-2.2c-1.49-0.43-2.36-1.99-1.92-3.49l2.98-10.32c0.43-1.5,2-2.36,3.49-1.92l7.62,2.2
				c1.49,0.43,2.36,1.99,1.92,3.49l-2.98,10.32C706.01,600.36,704.44,601.21,702.95,600.78z M696.01,624.81l-7.62-2.2
				c-1.49-0.43-2.36-1.99-1.93-3.49l2.98-10.32c0.43-1.5,2-2.36,3.49-1.92l7.62,2.2c1.49,0.43,2.36,1.99,1.92,3.49l-2.98,10.32
				C699.06,624.39,697.5,625.24,696.01,624.81z M689.06,648.84l-7.62-2.2c-1.49-0.43-2.36-1.99-1.92-3.49l2.98-10.32
				c0.43-1.5,2-2.36,3.49-1.92l7.62,2.2c1.49,0.43,2.36,1.99,1.92,3.49l-2.98,10.32C692.12,648.42,690.55,649.27,689.06,648.84z
				 M682.11,672.87l-7.62-2.2c-1.49-0.43-2.36-1.99-1.92-3.49l2.98-10.32c0.43-1.5,2-2.36,3.49-1.93l7.62,2.2
				c1.49,0.43,2.36,1.99,1.92,3.49l-2.98,10.32C685.17,672.45,683.6,673.3,682.11,672.87z M675.17,696.9l-7.62-2.2
				c-1.49-0.43-2.36-1.99-1.92-3.49l2.98-10.32c0.43-1.5,2-2.36,3.49-1.92l7.62,2.2c1.49,0.43,2.36,1.99,1.92,3.49l-2.98,10.32
				C678.22,696.48,676.66,697.33,675.17,696.9z M668.22,720.93l-7.62-2.2c-1.49-0.43-2.36-1.99-1.92-3.49l2.98-10.32
				c0.43-1.5,2-2.36,3.49-1.92l7.62,2.2c1.49,0.43,2.36,1.99,1.92,3.49l-2.98,10.32C671.27,720.51,669.71,721.36,668.22,720.93z
				 M661.27,744.97l-7.62-2.2c-1.49-0.43-2.36-1.99-1.92-3.49l2.98-10.32c0.43-1.5,2-2.36,3.49-1.92l7.62,2.2
				c1.49,0.43,2.36,1.99,1.92,3.49l-2.98,10.32C664.33,744.54,662.76,745.4,661.27,744.97z M654.32,769l-7.62-2.2
				c-1.49-0.43-2.36-1.99-1.92-3.49l2.98-10.32c0.43-1.5,2-2.36,3.49-1.92l7.62,2.2c1.49,0.43,2.36,1.99,1.92,3.49l-2.98,10.32
				C657.38,768.57,655.81,769.43,654.32,769z M647.38,793.03l-7.62-2.2c-1.49-0.43-2.36-1.99-1.92-3.49l2.98-10.32
				c0.43-1.5,2-2.36,3.49-1.92l7.62,2.2c1.49,0.43,2.36,1.99,1.92,3.49l-2.98,10.32C650.43,792.6,648.87,793.46,647.38,793.03z
				 M646.9,804.82l-2.98,10.32c-0.43,1.5-2,2.36-3.49,1.92l-7.62-2.2c-1.49-0.43-2.36-1.99-1.92-3.49l2.98-10.32
				c0.43-1.5,2-2.36,3.49-1.92l7.62,2.2C646.47,801.76,647.34,803.31,646.9,804.82z"/>
		</g>
		<g class="st10">
			<path class="st9" d="M616.15,839.89H504.28l11.81-40.85c1.19-4.13,5.51-6.51,9.64-5.32l88.28,25.52
				c4.13,1.19,6.51,5.51,5.32,9.64L616.15,839.89z"/>
			<path class="st9" d="M570.05,640.43c-4.13-1.19-8.45,1.19-9.64,5.32l-37.63,130.18c-1.19,4.13,1.19,8.45,5.32,9.64l88.28,25.52
				c4.13,1.19,8.45-1.19,9.64-5.32l37.63-130.18c1.19-4.13-1.19-8.45-5.32-9.64L570.05,640.43z"/>
			<path class="st9" d="M614.36,487.14c-4.13-1.19-8.45,1.19-9.64,5.32l-37.63,130.18c-1.19,4.13,1.19,8.45,5.32,9.64l88.28,25.52
				c4.13,1.19,8.45-1.19,9.64-5.32l37.63-130.18c1.19-4.13-1.19-8.45-5.32-9.64L614.36,487.14z"/>
			<path class="st9" d="M658.68,333.84c-4.13-1.19-8.45,1.19-9.64,5.32L611.4,469.34c-1.19,4.13,1.19,8.45,5.32,9.64L705,504.51
				c4.13,1.19,8.45-1.19,9.64-5.32l37.63-130.18c1.19-4.13-1.19-8.45-5.32-9.64L658.68,333.84z"/>
			<path class="st9" d="M703,180.55c-4.13-1.19-8.45,1.19-9.64,5.32l-37.63,130.18c-1.19,4.13,1.19,8.45,5.32,9.64l88.28,25.52
				c4.13,1.19,8.45-1.19,9.64-5.32l37.63-130.18c1.19-4.13-1.19-8.45-5.32-9.64L703,180.55z"/>
			<path class="st9" d="M732.39,50.85h96.54l6.67,1.93c4.13,1.19,6.51,5.51,5.32,9.64L803.28,192.6c-1.19,4.13-5.51,6.51-9.64,5.32
				l-88.28-25.52c-4.13-1.19-6.51-5.51-5.32-9.64L732.39,50.85z"/>
		</g>
	</g>
	<g class="st0">
		
			<rect x="61.03" y="62.64" transform="matrix(0.7645 -0.6446 0.6446 0.7645 -35.1874 58.5084)" class="st9" width="2.89" height="29.54"/>
		<path class="st9" d="M55.55,73.69l-6.4-7.59c-0.37-0.43-0.31-1.08,0.12-1.45l2.8-2.36c0.43-0.37,1.08-0.31,1.45,0.12l6.4,7.59
			c0.37,0.43,0.31,1.08-0.12,1.45L57,73.82C56.57,74.18,55.92,74.13,55.55,73.69z"/>
		
			<rect x="57" y="141.09" transform="matrix(0.6901 -0.7237 0.7237 0.6901 -89.1993 95.1569)" class="st9" width="19.02" height="21.29"/>
		<path class="st9" d="M60.75,174.19l-16.39-15.63c-1.45-1.38-1.5-3.67-0.12-5.12l5.83-6.12c1.38-1.45,3.67-1.5,5.12-0.12
			l16.39,15.63c1.45,1.38,1.5,3.67,0.12,5.12l-5.83,6.12C64.49,175.52,62.2,175.57,60.75,174.19z"/>
		
			<rect x="-95.39" y="225" transform="matrix(0.6901 -0.7237 0.7237 0.6901 -166.6434 66.2678)" class="st9" width="178.89" height="5.43"/>
		<polygon class="st9" points="-101.95,230.35 57.09,155.86 54.78,150.94 -106.17,226.32 		"/>
		<polygon class="st9" points="0.54,328.08 68.2,163.73 63.17,161.66 -3.68,324.06 		"/>
		
			<rect x="33.95" y="121.33" transform="matrix(0.5033 -0.8641 0.8641 0.5033 -104.9665 101.7176)" class="st9" width="4.08" height="41.67"/>
		<path class="st9" d="M34.36,93.53l14.91,14.22c0.95,0.91,2.46,0.87,3.36-0.08l6.09-6.39c0.91-0.95,0.87-2.46-0.08-3.36L43.73,83.7
			c-0.95-0.91-2.46-0.87-3.36,0.08l-6.09,6.39C33.37,91.12,33.41,92.63,34.36,93.53z"/>
		<path class="st9" d="M36.54,104.59l15.68,14.95c1.31,1.25,3.39,1.2,4.64-0.11l13.8-14.48c1.25-1.31,1.2-3.39-0.11-4.64
			L54.88,85.36c-1.31-1.25-3.39-1.2-4.64,0.11l-13.8,14.48C35.18,101.26,35.23,103.34,36.54,104.59z"/>
		
			<rect x="117.9" y="148.3" transform="matrix(0.6901 -0.7237 0.7237 0.6901 -77.1585 141.7613)" class="st9" width="18.12" height="25.36"/>
		<polygon class="st9" points="125.33,159.43 134.15,209.28 175.55,165.88 		"/>
		<path class="st9" d="M98.33,183.12l-64.68-61.68c-2.9-2.76-3.01-7.35-0.24-10.24l35.84-37.58c2.76-2.9,7.35-3.01,10.24-0.24
			l64.68,61.67c2.9,2.76,3.01,7.35,0.24,10.24l-35.84,37.58C105.81,185.77,101.23,185.88,98.33,183.12z"/>
		<path class="st9" d="M25.03,140.51l-12.11-7.05c-0.69-0.4-0.92-1.29-0.52-1.98l2.6-4.46c0.4-0.69,1.29-0.93,1.98-0.52l12.11,7.05
			c0.69,0.4,0.93,1.29,0.52,1.98l-2.6,4.46C26.61,140.67,25.72,140.91,25.03,140.51z"/>
		<g>
			
				<ellipse transform="matrix(0.0789 -0.9969 0.9969 0.0789 21.8106 246.182)" class="st9" cx="144.12" cy="111.29" rx="22.4" ry="22.4"/>
			<path class="st9" d="M174.63,100.54c-5.94-16.85-24.42-25.7-41.27-19.76c-16.85,5.94-25.7,24.42-19.76,41.27
				c5.94,16.85,24.42,25.7,41.27,19.76C171.72,135.87,180.57,117.39,174.63,100.54z M168.12,106.3c1.61-0.57,3.3,0.54,3.47,2.23
				c0.52,5.24-0.48,10.54-2.86,15.25c-0.77,1.52-2.75,1.94-4.04,0.83l-10.71-9.18c-1.53-1.31-1.06-3.77,0.83-4.44L168.12,106.3z
				 M155.46,86.13c4.8,2.17,8.9,5.68,11.78,10.09c0.93,1.43,0.31,3.35-1.3,3.91l-13.31,4.69c-1.89,0.67-3.8-0.97-3.43-2.94
				l2.59-13.87C152.11,86.34,153.91,85.43,155.46,86.13z M127.99,88.88c2.12-1.53,4.47-2.76,6.96-3.63c2.49-0.88,5.08-1.39,7.7-1.53
				c1.7-0.09,3.04,1.41,2.73,3.08l-2.59,13.88c-0.37,1.97-2.74,2.81-4.26,1.5L127.79,93C126.5,91.89,126.61,89.88,127.99,88.88z
				 M120.12,116.28c-1.61,0.57-3.3-0.54-3.47-2.23c-0.52-5.24,0.48-10.54,2.86-15.25c0.77-1.52,2.75-1.94,4.04-0.83l10.71,9.18
				c1.53,1.31,1.06,3.77-0.83,4.44L120.12,116.28z M142.34,106.24c2.79-0.98,5.85,0.48,6.83,3.27c0.98,2.79-0.48,5.85-3.27,6.83
				c-2.79,0.98-5.85-0.48-6.83-3.27S139.55,107.22,142.34,106.24z M132.77,136.45c-4.8-2.17-8.9-5.68-11.78-10.09
				c-0.93-1.43-0.31-3.35,1.3-3.91l13.31-4.69c1.89-0.67,3.8,0.97,3.43,2.94l-2.59,13.87C136.13,136.24,134.33,137.15,132.77,136.45
				z M142.86,135.77l2.59-13.88c0.37-1.97,2.74-2.81,4.26-1.5l10.72,9.19c1.29,1.11,1.19,3.12-0.19,4.12
				c-2.12,1.53-4.47,2.76-6.96,3.63c-2.49,0.88-5.08,1.39-7.7,1.53C143.9,138.95,142.55,137.45,142.86,135.77z"/>
			<path class="st9" d="M144.99,113.76c-1.37,0.48-2.87-0.24-3.35-1.6c-0.48-1.37,0.24-2.87,1.6-3.35c1.37-0.48,2.87,0.24,3.35,1.6
				C147.07,111.78,146.36,113.28,144.99,113.76z"/>
		</g>
		<g>
			
				<ellipse transform="matrix(0.4997 -0.8662 0.8662 0.4997 -10.7279 119.0251)" class="st9" cx="97.67" cy="68.8" rx="20.24" ry="20.24"/>
			<path class="st9" d="M117.85,47.64c-11.69-11.14-30.19-10.7-41.33,0.98c-11.14,11.69-10.7,30.19,0.98,41.33
				s30.19,10.7,41.33-0.98C129.98,77.29,129.54,58.78,117.85,47.64z M114.96,54.95c1.06-1.11,2.88-0.92,3.71,0.38
				c2.56,4.01,3.93,8.69,3.94,13.45c0,1.54-1.42,2.69-2.91,2.32l-12.39-3.01c-1.76-0.43-2.4-2.6-1.15-3.92L114.96,54.95z
				 M96.51,43.89c4.76-0.22,9.5,0.93,13.62,3.3c1.34,0.77,1.62,2.57,0.55,3.69l-8.8,9.23c-1.25,1.31-3.46,0.78-3.97-0.96
				l-3.59-12.23C93.89,45.43,94.97,43.96,96.51,43.89z M75.51,57.36c1.08-2.1,2.47-4.05,4.11-5.78c1.65-1.73,3.53-3.2,5.57-4.38
				c1.33-0.77,3.03-0.11,3.46,1.37l3.59,12.24c0.51,1.74-1.05,3.38-2.82,2.96l-12.4-3.01C75.54,60.39,74.8,58.72,75.51,57.36z
				 M80.39,82.65c-1.06,1.11-2.88,0.92-3.71-0.38c-2.56-4.01-3.93-8.69-3.94-13.45c0-1.54,1.42-2.69,2.91-2.32l12.39,3.01
				c1.76,0.43,2.4,2.6,1.15,3.92L80.39,82.65z M94.17,65.46c1.84-1.93,4.91-2.01,6.84-0.16c1.93,1.84,2.01,4.91,0.16,6.84
				s-4.91,2.01-6.84,0.16S92.33,67.39,94.17,65.46z M98.84,93.71c-4.76,0.22-9.5-0.93-13.62-3.3c-1.34-0.77-1.62-2.57-0.55-3.69
				l8.8-9.23c1.25-1.31,3.46-0.78,3.97,0.96l3.59,12.23C101.46,92.16,100.38,93.64,98.84,93.71z M106.69,89.03l-3.59-12.24
				c-0.51-1.74,1.05-3.38,2.82-2.96l12.4,3.01c1.49,0.36,2.23,2.03,1.53,3.39c-1.08,2.1-2.47,4.05-4.11,5.78
				c-1.65,1.73-3.53,3.2-5.57,4.38C108.82,91.17,107.13,90.51,106.69,89.03z"/>
			<path class="st9" d="M99.39,70.44c-0.9,0.95-2.4,0.98-3.35,0.08c-0.95-0.9-0.98-2.4-0.08-3.35c0.9-0.95,2.4-0.98,3.35-0.08
				C100.26,67.99,100.29,69.49,99.39,70.44z"/>
		</g>
	</g>
</g>
</svg>
